<?xml version="1.0" encoding="iso-8859-1"?>
<!-- Generator: Adobe Illustrator 18.0.0, SVG Export Plug-In . SVG Version: 6.00 Build 0)  -->
<!DOCTYPE svg PUBLIC "-//W3C//DTD SVG 1.1//EN" "http://www.w3.org/Graphics/SVG/1.1/DTD/svg11.dtd">
<svg version="1.1" id="Capa_1" xmlns="http://www.w3.org/2000/svg" xmlns:xlink="http://www.w3.org/1999/xlink" x="0px" y="0px" stroke="#ff64a8" fill="#ff64a8"
	 viewBox="0 0 52.855 52.855" style="enable-background:new 0 0 52.855 52.855;" xml:space="preserve">
<g>
	<path d="M52.443,12.33c-0.946-5.965-6.317-7.922-11.101-8.699c-6.158-1.002-12.588,1.969-16.258,7.201
		C18.956,1.39,4.693,2.752,0.789,13.476c-2.535,6.959,1.502,15.006,5.531,20.355c5.224,6.934,12.767,11.951,20.214,15.498
		c0.347,0.166,0.64,0.078,0.855-0.113c0.201,0.092,0.437,0.109,0.692-0.014c3.505-1.68,6.141-4.482,9.004-7.164
		c3.314-3.102,6.742-5.861,9.715-9.391C51.91,26.584,53.765,20.668,52.443,12.33z M41.975,35.052
		c-4.119,4.26-9.44,9.811-14.669,12.32c-0.056,0.027-0.086,0.068-0.13,0.102C16.231,42.261,1.471,31.654,1.992,16.978
		C2.43,4.597,18.739,3.521,24.074,12.713c0.208,0.359,0.498,0.451,0.773,0.395c0.37,0.256,0.863,0.268,1.172-0.234
		c3.383-5.492,9.122-7.766,15.136-7.262c7.021,0.59,9.801,5.102,9.923,12.316C51.205,25.441,46.603,30.265,41.975,35.052z"/>
</g>
<g>
</g>
<g>
</g>
<g>
</g>
<g>
</g>
<g>
</g>
<g>
</g>
<g>
</g>
<g>
</g>
<g>
</g>
<g>
</g>
<g>
</g>
<g>
</g>
<g>
</g>
<g>
</g>
<g>
</g>
</svg>
